<?xml version="1.0" encoding="iso-8859-1"?>
<!-- Generator: Adobe Illustrator 19.0.0, SVG Export Plug-In . SVG Version: 6.00 Build 0)  -->
<svg version="1.1" id="Capa_1" xmlns="http://www.w3.org/2000/svg" xmlns:xlink="http://www.w3.org/1999/xlink" x="0px" y="0px"
	 viewBox="0 0 512 512" style="enable-background:new 0 0 512 512;" xml:space="preserve">
<circle style="fill:#EBC9A0;" cx="256" cy="256" r="248.5"/>
<path style="fill:#D7AF8C;" d="M96.15,137.423c-46.849,46.849-68.615,101.042,54.533,224.189s177.34,101.382,224.189,54.533
	s68.615-101.042-54.533-224.189S143,90.574,96.15,137.423z"/>
<path style="fill:#FBE6A5;" d="M116.639,116.639c-46.849,46.849-68.615,101.042,54.533,224.189s177.34,101.382,224.189,54.533
	s68.615-101.042-54.533-224.189S163.488,69.79,116.639,116.639z"/>
<g>
	<path style="fill:#FFAF5D;" d="M370.772,374.355l-35.699-1.658c-9.455-0.439-16.763-8.46-16.324-17.915l1.658-35.699
		c0.439-9.455,8.46-16.763,17.915-16.324l35.699,1.658c9.455,0.439,16.763,8.46,16.324,17.915l-1.658,35.699
		C388.247,367.485,380.226,374.794,370.772,374.355z"/>
	<path style="fill:#FFAF5D;" d="M192.783,188.792l-35.699-1.658c-9.455-0.439-16.763-8.46-16.324-17.915l1.658-35.699
		c0.439-9.455,8.46-16.763,17.915-16.324l35.699,1.658c9.455,0.439,16.763,8.46,16.324,17.915l-1.658,35.699
		C210.259,181.923,202.238,189.232,192.783,188.792z"/>
</g>
<g>
	<circle style="fill:#87CD6E;" cx="315.46" cy="385.95" r="21.11"/>
	<circle style="fill:#87CD6E;" cx="122.09" cy="187.51" r="19.699"/>
</g>
<g>
	<circle style="fill:#ADDF6E;" cx="339.69" cy="377.18" r="24.903"/>
	<circle style="fill:#ADDF6E;" cx="133.34" cy="162.08" r="21.809"/>
	<circle style="fill:#ADDF6E;" cx="188.13" cy="302.2" r="18.595"/>
</g>
<circle style="fill:#FF6464;" cx="171.17" cy="237.82" r="64.27"/>
<circle style="fill:#FF8782;" cx="171.17" cy="237.82" r="47.13"/>
<circle style="fill:#FF6464;" cx="274.18" cy="328.71" r="64.27"/>
<circle style="fill:#FF8782;" cx="274.18" cy="328.71" r="47.13"/>
<path style="fill:#F59B55;" d="M196.815,127.069c0,0-37.238,28.692-52.212,51.811l199.759,159.706c0,0,26.256,10.827,49.988,0.223
	L196.815,127.069z"/>
<g>
	<path style="fill:#FFAF5D;" d="M297.112,235.845l-28.619,24.978c-7.131,6.224-17.957,5.488-24.181-1.643l-24.978-28.619
		c-6.224-7.131-5.488-17.957,1.642-24.181l28.619-24.978c7.131-6.224,17.957-5.488,24.181,1.643l24.978,28.619
		C304.978,218.795,304.243,229.621,297.112,235.845z"/>
	<path style="fill:#FFAF5D;" d="M325.328,331.94l-35.699-1.658c-9.455-0.439-16.763-8.46-16.324-17.915l1.658-35.699
		c0.439-9.455,8.46-16.763,17.915-16.324l35.699,1.658c9.455,0.439,16.763,8.46,16.324,17.915l-1.658,35.699
		C342.803,325.071,334.783,332.38,325.328,331.94z"/>
</g>
<path style="fill:#FFBE50;" d="M198.558,167.953l-6.286,24.926c-2.315,9.178-11.631,14.741-20.808,12.427l-24.926-6.286
	c-9.178-2.315-14.741-11.631-12.427-20.808l6.286-24.926c2.315-9.178,11.631-14.741,20.808-12.427l24.926,6.286
	C195.309,149.459,200.873,158.775,198.558,167.953z"/>
<path style="fill:#FFAF5D;" d="M190.5,155.75l-41.125,30.125c-6.638,1.833-11.213-1.836-15.398-6.759
	c-1.741,8.876,3.685,17.666,12.56,19.904l24.926,6.287c9.178,2.314,18.494-3.25,20.809-12.427l6.092-24.156L190.5,155.75z"/>
<path style="fill:#FFBE50;" d="M365.361,341.154l-6.904,24.762c-2.542,9.117-11.994,14.447-21.111,11.905l-24.762-6.904
	c-9.117-2.542-14.447-11.994-11.905-21.111l6.904-24.762c2.542-9.117,11.994-14.447,21.111-11.905l24.762,6.904
	C362.573,322.584,367.903,332.036,365.361,341.154z"/>
<path style="fill:#FFAF5D;" d="M356.706,346.942l-38.73,9.661c-6.682,1.667-13.393-0.871-17.454-5.897
	c-1.962,8.831,3.244,17.752,12.061,20.21l24.762,6.905c9.117,2.542,18.569-2.788,21.111-11.906l6.691-23.997
	C362.956,344.3,360.081,346.101,356.706,346.942z"/>
<path style="fill:#FFBE50;" d="M312.97,266.515l-6.878,24.77c-2.532,9.12-11.978,14.46-21.098,11.928l-24.77-6.878
	c-9.12-2.532-14.46-11.978-11.928-21.098l6.878-24.77c2.532-9.12,11.978-14.46,21.098-11.928l24.77,6.878
	C310.162,247.949,315.502,257.395,312.97,266.515z"/>
<path style="fill:#FFAF5D;" d="M304.321,272.313l-38.72,9.702c-6.68,1.674-13.394-0.856-17.46-5.878
	c-1.952,8.833,3.263,17.748,12.083,20.197l24.77,6.878c9.12,2.532,18.566-2.808,21.099-11.928l6.665-24.005
	C310.569,269.664,307.695,271.468,304.321,272.313z"/>
<path style="fill:#FFBE50;" d="M184.98,244.016l-24.75,6.948c-9.113,2.558-18.574-2.755-21.132-11.868l-6.948-24.75
	c-2.558-9.113,2.755-18.574,11.868-21.132l24.75-6.948c9.113-2.558,18.574,2.755,21.132,11.868l6.948,24.75
	C199.406,231.997,194.093,241.458,184.98,244.016z"/>
<path style="fill:#FFAF5D;" d="M175.54,239.622l-28.357-28.093c-4.892-4.847-6.206-11.9-4.017-17.98
	c-8.567,2.906-13.491,11.985-11.017,20.798l6.948,24.75c2.559,9.113,12.02,14.426,21.133,11.868l23.985-6.734
	C181.043,243.594,178.011,242.07,175.54,239.622z"/>
<path style="fill:#FFBE50;" d="M235.937,303.475l-22.349,12.702c-8.229,4.677-18.691,1.798-23.368-6.431l-12.702-22.349
	c-4.677-8.229-1.798-18.691,6.431-23.368l22.349-12.702c8.229-4.677,18.691-1.798,23.368,6.431l12.702,22.349
	C247.045,288.336,244.165,298.798,235.937,303.475z"/>
<path style="fill:#FFAF5D;" d="M225.717,301.482l-34.286-20.44c-5.915-3.526-8.888-10.056-8.227-16.484
	c-7.615,4.883-10.209,14.881-5.686,22.838l12.702,22.349c4.677,8.229,15.139,11.108,23.368,6.431l21.659-12.31
	C232.014,304.012,228.704,303.263,225.717,301.482z"/>
<path style="fill:#FFBE50;" d="M237.452,255.001l-22.349,12.702c-8.229,4.677-18.691,1.798-23.368-6.431l-12.702-22.349
	c-4.677-8.229-1.798-18.691,6.431-23.368l22.349-12.702c8.229-4.677,18.691-1.798,23.368,6.431l12.702,22.349
	C248.56,239.862,245.68,250.324,237.452,255.001z"/>
<path style="fill:#FFAF5D;" d="M227.232,253.009l-34.286-20.44c-5.915-3.526-8.888-10.056-8.227-16.484
	c-7.615,4.883-10.209,14.881-5.686,22.838l12.702,22.349c4.677,8.229,15.139,11.108,23.368,6.431l21.659-12.31
	C233.528,255.539,230.219,254.79,227.232,253.009z"/>
<path style="fill:#FFBE50;" d="M297.214,306.101l6.441,24.887c2.372,9.163-3.134,18.514-12.297,20.885l-24.887,6.441
	c-9.163,2.372-18.514-3.134-20.885-12.297l-6.441-24.887c-2.372-9.163,3.134-18.514,12.297-20.885l24.887-6.441
	C285.492,291.432,294.843,296.938,297.214,306.101z"/>
<path style="fill:#FFAF5D;" d="M292.628,315.449l-28.667,27.777c-4.946,4.792-12.025,5.962-18.058,3.649
	c2.73,8.624,11.707,13.733,20.568,11.44l24.887-6.441c9.163-2.372,14.668-11.722,12.297-20.886l-6.243-24.118
	C296.711,310.028,295.126,313.029,292.628,315.449z"/>
<path style="fill:#FFDC8C;" d="M116.639,116.639L116.639,116.639c16.733-16.731,46.51-14.081,169.658,109.066
	c123.059,123.059,125.792,152.882,109.1,169.62c46.825-46.841,68.548-101.038-54.568-224.154
	C217.681,48.024,163.489,69.79,116.639,116.639z"/>
<path d="M437.02,74.98C388.667,26.629,324.38,0,256,0S123.333,26.629,74.98,74.98C26.629,123.333,0,187.62,0,256
	s26.629,132.667,74.98,181.02C123.333,485.371,187.62,512,256,512s132.667-26.629,181.02-74.98C485.371,388.667,512,324.38,512,256
	S485.371,123.333,437.02,74.98z M426.413,426.413C380.894,471.932,320.374,497,256,497s-124.894-25.068-170.413-70.587
	S15,320.374,15,256S40.068,131.106,85.587,85.587S191.626,15,256,15s124.894,25.068,170.413,70.587S497,191.626,497,256
	S471.932,380.894,426.413,426.413z"/>
<path d="M439.292,311.001c-4.666-39.638-35.139-87.111-93.16-145.133s-105.495-88.495-145.133-93.16
	c-40.235-4.738-67.904,16.869-89.663,38.628s-43.364,49.427-38.628,89.663c4.666,39.638,35.139,87.111,93.16,145.133
	c38.454,38.454,71.542,64.331,101.154,79.109c3.708,1.85,8.21,0.345,10.06-3.362s0.344-8.21-3.362-10.06
	c-5.743-2.866-11.641-6.194-17.705-9.981c5.712,1.44,11.641,2.185,17.685,2.185c6.13,0,12.14-0.771,17.927-2.252
	c1.936,2.329,5.018,5.455,9.238,7.96c4.685,2.78,9.733,4.166,14.931,4.166c5.059,0,10.258-1.312,15.399-3.93
	c6.778,1.486,21.567,2.627,33.091-11.35c11.698-14.187,5.5-32.662,3.544-37.536l4.603-17.178c0.993-3.706,1.081-7.444,0.403-10.981
	c5.751,7.845,10.386,14.902,13.903,21.181c13.501,24.103,7.645,31.555,3.815,35.453c-0.166,0.167-0.331,0.335-0.498,0.501
	c-21.665,21.665-46.878,40.685-84.336,33.219c-4.058-0.81-8.012,1.827-8.821,5.89c-0.81,4.062,1.827,8.011,5.89,8.821
	c6.737,1.343,13.138,1.96,19.236,1.96c34.173-0.001,58.754-19.399,78.638-39.283C422.423,378.905,444.028,351.237,439.292,311.001z
	 M100.46,238.816c-7.147-14.212-11.419-27.373-12.855-39.571c-3.977-33.784,14.153-57.119,34.337-77.303
	c4.557-4.557,10.922-8.717,28.88-0.331c6.933,3.237,14.967,8.088,24.153,14.585l-11.457-3.07
	c-6.357-1.703-12.996-0.829-18.696,2.461c-1.41,0.813-2.718,1.753-3.918,2.799c-4.071-1.171-14.801-3.302-24.554,3.008
	c-11.359,7.35-12.624,18.802-11.205,26.752c-6.745,6.579-9.987,13.666-9.649,21.119c0.448,9.884,7.139,16.826,10.86,19.945
	C102.286,218.624,100.318,228.729,100.46,238.816z M206.488,161.055c7.861,6.709,16.283,14.202,25.289,22.495l-8.408,10.629
	c-0.186-0.056-0.363-0.129-0.551-0.181c-6.345-1.747-12.99-0.918-18.712,2.334l-5.327,3.028l-0.373-1.819l7.365-27.586
	C206.562,167.008,206.79,164.002,206.488,161.055z M211.519,209.373c1.472-0.836,3.099-1.263,4.747-1.263
	c0.858,0,1.723,0.116,2.572,0.35c2.482,0.684,4.55,2.292,5.822,4.53l12.703,22.349c2.626,4.621,1.003,10.516-3.617,13.142
	l-22.35,12.703c-2.238,1.272-4.839,1.597-7.319,0.913c-2.482-0.683-4.55-2.292-5.822-4.53l-12.703-22.349
	c-2.626-4.621-1.003-10.516,3.617-13.142L211.519,209.373z M170.904,239.221l-14.721,3.02c-2.52,0.517-5.093,0.022-7.243-1.396
	c-2.149-1.417-3.618-3.587-4.135-6.109l-5.166-25.183c-0.518-2.521-0.022-5.094,1.396-7.243c1.417-2.149,3.587-3.617,6.109-4.135
	l25.183-5.166c2.521-0.517,5.094-0.021,7.243,1.396c2.149,1.417,3.617,3.587,4.134,6.109l1.362,6.64l-3.309,1.881
	C171.057,215.117,166.647,228.059,170.904,239.221z M233.241,297.459l-22.35,12.703c-2.238,1.272-4.838,1.597-7.319,0.913
	c-2.482-0.684-4.55-2.292-5.822-4.53l-12.703-22.349c-2.626-4.621-1.003-10.516,3.616-13.142l0.88-0.5
	c2.926,2.825,6.522,4.896,10.553,6.005c2.173,0.598,4.381,0.894,6.576,0.894c4.212,0,8.374-1.091,12.136-3.229l9.306-5.29
	l8.743,15.382c0.298,0.525,0.535,1.068,0.725,1.62c0.126,0.68,0.284,1.355,0.468,2.024
	C238.481,291.689,236.702,295.492,233.241,297.459z M191.283,166.073l-4.125,15.392c-5.355-3.296-11.659-4.419-17.847-3.149
	l-25.183,5.166c-1,0.205-1.975,0.476-2.927,0.795c-0.44-1.62-0.47-3.345-0.022-5.016l6.653-24.831
	c0.666-2.487,2.261-4.565,4.49-5.852c2.23-1.287,4.826-1.629,7.313-0.963l24.831,6.653c2.486,0.666,4.565,2.261,5.852,4.491
	C191.607,160.989,191.949,163.586,191.283,166.073z M110.481,188.587c-0.208-4.595,4.146-9.106,7.836-12.082
	c2.589-2.088,3.494-5.632,2.222-8.706c-0.15-0.362-3.584-8.928,3.96-13.81c2.79-1.805,5.959-2.07,8.427-1.886l-6.237,23.276
	c-0.67,2.499-0.932,5.048-0.812,7.562c-1.534,1.298-3.025,2.657-4.444,4.077c-2.757,2.756-5.231,5.688-7.445,8.751
	C112.312,193.906,110.606,191.331,110.481,188.587z M124.447,207.05c-0.039,1.831,0.121,3.679,0.498,5.518l5.166,25.183
	c1.322,6.446,5.076,11.992,10.57,15.616c4.075,2.688,8.744,4.078,13.515,4.078c1.661,0,3.336-0.169,5.001-0.511l19.206-3.939
	l2.852,5.017l-0.002,0.001c-11.811,6.713-15.958,21.783-9.246,33.594l1.684,2.962c-15.455,0.409-30.511-5.469-41.649-16.607
	C112.812,258.734,110.288,229.04,124.447,207.05z M176.475,335.525c-10.417-10.417-19.902-20.448-28.467-30.109
	c7.71,2.76,15.877,4.194,24.162,4.194c3.218,0,6.453-0.234,9.687-0.672l2.853,5.02c3.252,5.722,8.537,9.834,14.882,11.58
	c0.852,0.234,1.709,0.409,2.569,0.551c-1.276,14.903,2.125,29.715,9.598,42.45C200.552,358.848,188.815,347.866,176.475,335.525z
	 M273.701,389.023c-15.174,0-29.439-5.909-40.169-16.638c-12.832-12.833-18.694-30.927-15.959-48.798
	c0.243-0.128,0.49-0.248,0.73-0.384l12.362-7.026c-0.085,2.422,0.188,4.87,0.833,7.277l6.653,24.831
	c1.704,6.356,5.78,11.67,11.479,14.96c3.797,2.192,8.01,3.312,12.279,3.312c2.14,0,4.294-0.281,6.417-0.85l24.431-6.546
	c1.178,8.235,6.503,15.531,14.32,19.028C297.437,385.219,285.863,389.023,273.701,389.023z M252.802,307.768l24.831-6.653
	c0.831-0.223,1.673-0.333,2.51-0.333c1.67,0,3.318,0.438,4.804,1.295c2.229,1.287,3.824,3.365,4.49,5.853l6.653,24.831
	c1.375,5.133-1.682,10.428-6.815,11.804l0,0l-24.831,6.653c-2.488,0.667-5.084,0.324-7.314-0.963s-3.824-3.365-4.49-5.853
	l-6.653-24.831c-0.667-2.487-0.325-5.084,0.962-7.314S250.316,308.434,252.802,307.768z M252.517,278.985l6.654-24.831
	c0.666-2.487,2.261-4.565,4.49-5.853c2.229-1.287,4.825-1.629,7.313-0.963l24.831,6.653c2.486,0.667,4.565,2.262,5.852,4.491
	s1.629,4.826,0.962,7.313l-6.653,24.83c-0.069,0.257-0.149,0.509-0.237,0.756c-1.028-0.838-2.112-1.62-3.283-2.296
	c-5.699-3.29-12.339-4.165-18.696-2.461l-14.929,4c-2.258-0.739-4.146-2.253-5.343-4.327c-0.321-0.555-0.582-1.133-0.784-1.726
	c-0.122-0.655-0.264-1.309-0.44-1.958C252.113,281.415,252.194,280.188,252.517,278.985z M352.714,389.075
	c-8.027,9.735-18.677,6.253-19.797,5.85c-2.172-0.835-4.608-0.615-6.594,0.595c-6.496,3.957-12.196,4.458-17.427,1.528
	c-0.665-0.372-1.282-0.781-1.859-1.204c6.287-3.304,12.112-7.561,17.289-12.709l11.278,3.022c2.123,0.569,4.276,0.85,6.417,0.85
	c4.269,0,8.483-1.12,12.279-3.311c0.5-0.289,0.972-0.613,1.447-0.933C355.244,384.981,354.301,387.151,352.714,389.075z
	 M357.945,340.021l-6.653,24.831c-0.666,2.486-2.261,4.565-4.49,5.852s-4.825,1.629-7.314,0.963l-24.831-6.653
	c-5.133-1.375-8.19-6.671-6.815-11.804l6.653-24.831c0.666-2.486,2.261-4.565,4.49-5.852c1.485-0.857,3.133-1.295,4.804-1.295
	c0.837,0,1.68,0.11,2.51,0.333l24.831,6.653C356.263,329.593,359.32,334.888,357.945,340.021z M355.012,313.729l-24.831-6.653
	c-6.356-1.703-12.996-0.829-18.696,2.461c-1.873,1.082-3.551,2.4-5.047,3.885l-2.163-8.073c2.934-3.008,5.083-6.746,6.18-10.838
	l6.653-24.831c0.114-0.426,0.215-0.854,0.306-1.283c16.592,17.568,30.443,33.138,41.628,46.804
	C357.763,314.605,356.421,314.106,355.012,313.729z M408.911,368.408c-1.585-6.479-4.606-13.64-9.085-21.635
	c-15.549-27.759-50.951-69.096-108.227-126.372c-3.238-3.238-6.412-6.393-9.522-9.467c-2.947-2.911-7.696-2.882-10.606,0.064
	c-2.912,2.946-2.883,7.695,0.063,10.606c3.09,3.053,6.243,6.187,9.459,9.403c1.6,1.6,3.178,3.184,4.743,4.758l-10.88-2.915
	c-6.356-1.703-12.996-0.829-18.695,2.461c-0.959,0.554-1.854,1.185-2.717,1.848c-0.375-3.16-1.372-6.297-3.04-9.232l-12.703-22.35
	c-0.579-1.019-1.244-1.966-1.946-2.878l7.03-8.887c0.632,0.596,1.258,1.184,1.896,1.787c1.45,1.372,3.304,2.053,5.154,2.053
	c1.989,0,3.974-0.786,5.449-2.345c2.847-3.009,2.717-7.755-0.292-10.603c-43.515-41.185-75.513-66.269-97.822-76.686
	c-4.833-2.256-9.352-3.894-13.593-4.919c15.369-11.007,33.208-18.14,55.669-15.495c36.158,4.256,80.736,33.325,136.28,88.869
	s84.613,100.122,88.87,136.28C427.038,335.208,419.911,353.043,408.911,368.408z"/>
<path d="M252.969,136.33l-0.061,0.061c-2.929,2.929-2.899,7.647,0.03,10.576c1.457,1.457,3.372,2.182,5.289,2.182
	c1.937,0,3.876-0.74,5.348-2.212c2.929-2.929,2.929-7.678,0-10.606C260.646,133.4,255.897,133.4,252.969,136.33z"/>
<path d="M391.573,291.596l-0.061,0.061c-2.929,2.929-2.899,7.647,0.03,10.576c1.457,1.457,3.372,2.182,5.289,2.182
	c1.937,0,3.876-0.74,5.348-2.212c2.929-2.929,2.929-7.677,0-10.606C399.25,288.667,394.501,288.667,391.573,291.596z"/>
<path d="M209.418,110.2l-0.061,0.061c-2.929,2.929-2.899,7.647,0.03,10.576c1.457,1.457,3.372,2.182,5.289,2.182
	c1.937,0,3.876-0.74,5.348-2.212c2.929-2.929,2.929-7.677,0-10.606C217.096,107.271,212.347,107.271,209.418,110.2z"/>
<path d="M318.166,194.589l-0.061,0.061c-2.929,2.929-2.899,7.647,0.03,10.576c1.457,1.457,3.372,2.182,5.289,2.182
	c1.937,0,3.876-0.74,5.348-2.212c2.929-2.929,2.929-7.678,0-10.606C325.843,191.66,321.094,191.66,318.166,194.589z"/>
<path d="M282.507,179.501l-0.061,0.061c-2.929,2.929-2.899,7.647,0.03,10.576c1.457,1.457,3.372,2.182,5.289,2.182
	c1.937,0,3.876-0.74,5.348-2.212c2.929-2.929,2.929-7.677,0-10.606C290.185,176.572,285.436,176.572,282.507,179.501z"/>
<path d="M360.793,262.794l-0.061,0.061c-2.941,2.917-2.929,7.636-0.012,10.576c1.458,1.471,3.383,2.203,5.31,2.203
	s3.857-0.732,5.327-2.191c2.941-2.917,2.96-7.666,0.043-10.606C368.482,259.896,363.734,259.876,360.793,262.794z"/>
<path d="M364.071,249.316c1.937,0,3.876-0.74,5.348-2.212c2.929-2.929,2.929-7.678,0-10.606c-2.929-2.929-7.678-2.929-10.606,0
	l-0.061,0.061c-2.929,2.929-2.899,7.647,0.03,10.576C360.239,248.592,362.154,249.316,364.071,249.316z"/>
<g>
</g>
<g>
</g>
<g>
</g>
<g>
</g>
<g>
</g>
<g>
</g>
<g>
</g>
<g>
</g>
<g>
</g>
<g>
</g>
<g>
</g>
<g>
</g>
<g>
</g>
<g>
</g>
<g>
</g>
</svg>
