<svg id="Capa_1" enable-background="new 0 0 512 512" height="512" viewBox="0 0 512 512" width="512" xmlns="http://www.w3.org/2000/svg"><g><g><path d="m237.471 448.533h220.759c15.395 0 27.876 12.48 27.876 27.876 0 15.395-12.48 27.876-27.876 27.876h-220.759z" fill="#655e66"/><g fill="#e27d47"><path d="m276.414 448.533h60.605l-38.945 55.751h-60.606z"/><path d="m458.229 448.533-38.945 55.751h-60.605l38.945-55.751z"/><path d="m7.5 217.242v179.783l170.535 75.473v-255.256c0-47.092-38.175-85.267-85.267-85.267-47.092 0-85.268 38.175-85.268 85.267z"/></g><path d="m106.25 133.035c-18.147 2.883-34.391 11.48-46.823 23.912-15.434 15.434-24.973 36.753-24.973 60.295v191.714l-26.954-11.93v-179.784c0-23.541 9.549-44.861 24.973-60.295 15.434-15.434 36.744-24.973 60.295-24.973 4.584 0 9.088.361 13.482 1.061z" fill="#dd6938"/><path d="m50.154 250.002c-31.199-31.199-26.703-82.996 9.405-108.353l147.342-103.468 55.073 55.073-103.468 147.342c-25.356 36.109-77.153 40.605-108.352 9.406z" fill="#655e66"/><path d="m59.757 258.06c-3.369-2.35-6.575-5.032-9.597-8.054-31.205-31.205-26.703-82.998 9.399-108.357l147.347-103.466 17.651 17.651-147.339 103.474c-32.614 22.903-39.443 67.371-17.461 98.752z" fill="#535057"/><circle cx="100.311" cy="199.845" fill="#e27d47" r="35.838"/><path d="m95.067 225.186c4.414 4.414 9.699 7.437 15.294 9.058-12.151 3.543-25.804.52-35.392-9.058-13.993-14.003-13.993-36.693 0-50.686 9.589-9.579 23.241-12.601 35.392-9.058-5.595 1.621-10.88 4.644-15.294 9.058-13.993 13.993-13.993 36.684 0 50.686z" fill="#dd6938"/><path d="m295.502 137.667h67.9v55.918h-67.9z" fill="#655e66" transform="matrix(.707 .707 -.707 .707 213.609 -184.447)"/><path d="m465.145 170.251.46.46c15.506 15.506 26.847 34.729 32.596 55.89 4.532 16.679 7.894 36.969 5.509 56.36l-19.286 19.286-50.293-50.293c6.61-14.113 4.091-31.453-7.573-43.116-15.528-15.528-41.123-14.856-55.772 2.006-12.284 14.14-12.345 35.517-.135 49.72 11.602 13.494 30.164 16.745 45.12 9.735l50.3 50.3-19.286 19.286c-18.444 3.771-40.812-.545-59.01-6.016-19.981-6.007-38.116-16.966-52.869-31.72-36.131-36.131-37.187-94.977-1.333-131.384 36.144-36.701 95.207-36.879 131.572-.514z" fill="#c3bec6"/><path d="m460.872 325.801-14.083 14.083c-18.447 3.773-40.817-.541-59.014-6.015-19.978-6.005-38.115-16.965-52.868-31.719-18.367-18.367-27.665-42.599-27.665-66.771 0-23.381 8.708-46.712 26.334-64.619 2.542-2.572 5.185-4.975 7.937-7.187-13.503 16.795-20.189 37.244-20.189 57.723 0 24.172 9.299 48.404 27.665 66.771 14.753 14.753 32.89 25.713 52.868 31.719 18.208 5.464 40.568 9.788 59.015 6.015z" fill="#b4acb7"/><path d="m214.413 119.93 57.457 57.457c5.244 5.244 13.747 5.244 18.991 0l50.352-50.352c5.244-5.244 5.244-13.747 0-18.991l-57.457-57.457z" fill="#e27d47"/><path d="m214.413 119.93 57.457 57.457c5.244 5.244 13.747 5.244 18.991 0l13.501-13.501-66.952-66.952z" fill="#dd6938"/><circle cx="232.416" cy="68.589" fill="#c3bec6" r="60.906"/><circle cx="232.416" cy="68.589" fill="#e27d47" r="19.975"/><path d="m187.129 346.683h-129.287c-27.803 0-50.342 22.539-50.342 50.342v107.26h229.971v-107.26c0-27.803-22.539-50.342-50.342-50.342z" fill="#f9f6f9"/><path d="m83.139 346.68c-27.805 0-50.346 22.541-50.346 50.346v107.258h-25.293v-107.258c0-27.805 22.541-50.346 50.346-50.346z" fill="#e2dfe2"/><g><path d="m63.885 430.586c-4.662.171-9.324.171-13.986 0-8.129-.298-14.703-6.872-15.001-15.001-.171-4.662-.171-9.324 0-13.986.298-8.129 6.872-14.703 15.001-15.001 4.565-.167 9.131-.171 13.696-.01 8.351.294 15.008 6.951 15.302 15.302.161 4.565.157 9.131-.01 13.696-.299 8.127-6.874 14.702-15.002 15z" fill="#da4a54"/><path d="m130.653 430.586c-4.662.171-9.324.171-13.986 0-8.129-.298-14.703-6.872-15.001-15.001-.171-4.662-.171-9.324 0-13.986.298-8.129 6.872-14.703 15.001-15.001 4.565-.167 9.131-.171 13.696-.01 8.351.294 15.008 6.951 15.302 15.302.161 4.565.157 9.131-.01 13.696-.3 8.127-6.874 14.702-15.002 15z" fill="#ffef4a"/><path d="m195.072 430.586c-4.662.171-9.324.171-13.986 0-8.129-.298-14.703-6.872-15.001-15.001-.171-4.662-.171-9.324 0-13.986.298-8.129 6.872-14.703 15.001-15.001 4.565-.167 9.131-.171 13.696-.01 8.351.294 15.008 6.951 15.302 15.302.161 4.565.157 9.131-.01 13.696-.299 8.127-6.873 14.702-15.002 15z" fill="#78d0b1"/></g><g><path d="m63.051 430.588c.14 0 .28.01.42.01-4.514.16-9.048.16-13.572-.01-8.127-.3-14.703-6.876-15.004-15.004-.17-4.664-.17-9.328 0-13.993.3-8.127 6.876-14.703 15.004-14.994 4.534-.17 9.058-.17 13.592-.01-.15 0-.29 0-.44.01-8.137.29-14.703 6.866-15.004 14.994-.17 4.664-.17 9.329 0 13.993.301 8.128 6.867 14.704 15.004 15.004z" fill="#d82e3d"/><path d="m129.812 430.588c.14 0 .28.01.42.01-4.524.16-9.048.15-13.562-.01-8.128-.3-14.703-6.876-15.004-15.004-.17-4.664-.17-9.328 0-13.993.3-8.127 6.876-14.703 15.004-14.994 4.524-.17 9.058-.17 13.582-.01-.15 0-.29 0-.44.01-8.127.29-14.703 6.866-14.994 14.994-.18 4.664-.18 9.329 0 13.993.291 8.128 6.867 14.704 14.994 15.004z" fill="#ffd321"/><path d="m194.231 430.588c.14 0 .28.01.42.01-4.524.16-9.038.15-13.562-.01-8.127-.3-14.703-6.876-15.004-15.004-.17-4.664-.17-9.328 0-13.993.3-8.127 6.876-14.703 15.004-14.994 4.524-.17 9.058-.17 13.582-.01-.15 0-.29 0-.44.01-8.128.29-14.703 6.866-14.994 14.994-.17 4.664-.17 9.329 0 13.993.29 8.128 6.866 14.704 14.994 15.004z" fill="#66b49d"/></g></g><g><path d="m69.664 169.201c-16.896 16.898-16.896 44.392 0 61.289 8.449 8.449 19.548 12.673 30.645 12.673s22.196-4.224 30.645-12.673c8.185-8.185 12.693-19.069 12.693-30.645s-4.508-22.459-12.693-30.644c-16.897-16.897-44.39-16.898-61.29 0zm50.683 50.682c-11.048 11.049-29.028 11.049-40.076 0-11.049-11.049-11.049-29.027 0-40.076 5.524-5.525 12.781-8.287 20.038-8.287s14.514 2.762 20.038 8.287c5.352 5.352 8.301 12.469 8.301 20.038 0 7.57-2.948 14.686-8.301 20.038z"/><path d="m505.433 224.638c-6.029-22.19-17.968-42.67-34.523-59.226l-.461-.46c-6.555-6.554-13.95-12.157-21.98-16.651-3.613-2.022-8.185-.733-10.208 2.882-2.022 3.615-.732 8.185 2.882 10.207 6.829 3.821 13.12 8.589 18.7 14.168l.46.46c14.71 14.71 25.31 32.882 30.656 52.552 5.137 18.913 7.01 36.039 5.579 50.954l-12.121 12.115-41.507-41.508c5.346-16.181 1.202-34.337-11.052-46.601-8.917-8.912-21.254-13.773-33.865-13.325-10.073.354-19.452 3.911-27.098 10.143l-14.077-14.077c-2.93-2.929-7.678-2.929-10.607 0s-2.929 7.678 0 10.606l14.728 14.728c-10.367 16.603-9.044 38.652 4.023 53.848 12.144 14.123 31.653 19.35 48.982 13.624l41.518 41.517-12.329 12.335c-13.783 2.25-32.106.105-53.198-6.25-18.6-5.585-35.795-15.9-49.723-29.83-16.427-16.426-25.473-38.259-25.473-61.476 0-22.443 8.585-43.519 24.174-59.347 19.887-20.198 48.419-29.161 76.315-23.978 4.068.758 7.987-1.931 8.744-6.004.756-4.072-1.932-7.987-6.004-8.744-20.437-3.797-41.16-1.135-59.537 7.153l-12.018-12.018.093-.093c3.959-3.951 6.14-9.209 6.14-14.803 0-5.595-2.181-10.852-6.134-14.798l-46.924-46.934c-2.463-13.047-8.726-25.511-18.802-35.588-26.674-26.672-70.07-26.67-96.741 0-10.793 10.793-17.214 24.325-19.272 38.38l-99.953 70.187c-14.121 4.449-27.118 12.328-37.652 22.862-17.52 17.531-27.168 40.827-27.168 65.596v287.038c0 4.142 3.357 7.5 7.5 7.5l450.725.001c19.507 0 35.376-15.869 35.376-35.376 0-19.506-15.869-35.375-35.376-35.375h-213.258v-44.009c0-31.893-25.947-57.84-57.839-57.84h-1.595s-.011-123.297-.027-123.992l46.841-66.713 34.211 34.204c3.952 3.959 9.209 6.139 14.804 6.139s10.851-2.18 14.799-6.134l.098-.098 12.065 12.065c-5.623 12.626-8.587 26.439-8.587 40.719 0 27.224 10.606 52.823 29.866 72.083 15.679 15.678 35.048 27.293 56.009 33.588 17.18 5.176 32.535 7.773 45.876 7.773 6.016 0 11.621-.528 16.8-1.586 1.44-.294 2.763-1.006 3.803-2.046l19.28-19.29c2.928-2.929 2.927-7.677-.001-10.605l-50.3-50.3c-2.234-2.234-5.628-2.828-8.488-1.487-12.384 5.808-27.29 2.588-36.248-7.829-9.802-11.4-9.753-28.558.114-39.91 5.66-6.514 13.499-10.267 22.072-10.568 8.589-.304 16.661 2.874 22.73 8.94 9.085 9.093 11.53 23.012 6.084 34.637-1.339 2.86-.744 6.252 1.488 8.485l50.29 50.29c2.929 2.928 7.677 2.929 10.605.001l19.29-19.28c1.184-1.183 1.937-2.727 2.142-4.387 2.149-17.436.225-37.368-5.716-59.244zm-310.783-193.81c10.411-10.411 24.087-15.617 37.763-15.617s27.352 5.206 37.763 15.617c20.823 20.823 20.823 54.704 0 75.527h.001c-20.825 20.824-54.705 20.823-75.528 0-20.822-20.823-20.822-54.704.001-75.527zm160.119 465.954h-42.309l28.465-40.751h42.309zm46.761-40.751h42.309l-28.465 40.751h-42.309zm-107.366 40.751h-42.308l28.465-40.751h42.307zm184.437-20.375c0 11.235-9.141 20.376-20.376 20.376h-24.555l28.221-40.403c9.489 1.733 16.71 10.045 16.71 20.027zm-216.577-20.376-17.056 24.417v-24.417zm-91.491-116.848h-97.694c-4.143 0-7.5 3.358-7.5 7.5s3.357 7.5 7.5 7.5h114.289c23.622 0 42.839 19.218 42.839 42.84v99.759h-214.967v-99.756-.003c0-18.923 12.141-35.381 30.21-40.953 3.958-1.221 6.178-5.419 4.957-9.377-1.222-3.957-5.42-6.178-9.377-4.957-10.204 3.147-19 8.871-25.79 16.327v-140.819c0-13.1 3.226-25.704 9.29-36.917-1.051 4.125-1.775 8.361-2.149 12.674-2.008 23.16 6.267 45.87 22.704 62.307 14.822 14.817 34.737 23.002 55.483 23.002 2.276 0 4.563-.099 6.854-.298 23.16-2.014 44.104-14.081 57.461-33.107l5.89-8.388zm-18.165-102.897c-10.806 15.391-27.749 25.153-46.485 26.782-18.732 1.629-37.125-5.066-50.431-18.368-13.297-13.296-19.991-31.668-18.366-50.404 1.625-18.744 11.388-35.697 26.781-46.512l100.715-70.722c1.807 14.595 8.281 28.718 19.462 39.899 10.078 10.077 22.54 16.34 35.587 18.802l1.95 1.95zm128.994-62.464c-1.583 0-3.069-.616-4.192-1.741l-35.731-35.724c14.398-1.901 28.307-8.358 39.345-19.396 11.039-11.039 17.495-24.945 19.395-39.344l35.729 35.736c1.119 1.117 1.735 2.604 1.735 4.187s-.616 3.069-1.741 4.192l-50.354 50.354c-1.116 1.12-2.603 1.736-4.186 1.736zm25.504-1.84 28.938-28.939 8.927 8.927c-5.905 3.869-11.445 8.389-16.508 13.531-4.69 4.762-8.838 9.927-12.421 15.417z"/><path d="m232.414 96.053c7.035 0 14.071-2.678 19.428-8.034h-.001c5.189-5.189 8.048-12.089 8.048-19.428s-2.858-14.238-8.047-19.427c-10.713-10.714-28.143-10.712-38.856 0-10.711 10.712-10.711 28.142 0 38.854 5.356 5.357 12.392 8.035 19.428 8.035zm-8.821-36.283c2.432-2.432 5.626-3.648 8.82-3.648 3.195 0 6.39 1.216 8.822 3.648 2.355 2.356 3.653 5.489 3.653 8.821s-1.298 6.465-3.653 8.821c-.001 0-.001 0-.001 0-4.862 4.863-12.777 4.865-17.641 0-4.864-4.864-4.864-12.778 0-17.642z"/><path d="m49.624 379.101c-12.02.441-21.781 10.201-22.221 22.221-.177 4.822-.177 9.713 0 14.536.44 12.019 10.201 21.78 22.221 22.221 2.411.088 4.839.133 7.268.133s4.856-.044 7.268-.133h.001c12.019-.441 21.78-10.202 22.22-22.22.173-4.714.177-9.503.011-14.235-.43-12.206-10.327-22.104-22.533-22.533-4.726-.167-9.515-.163-14.235.01zm21.777 23.049c.153 4.374.149 8.801-.011 13.158-.154 4.209-3.572 7.626-7.78 7.781-4.458.163-8.978.163-13.436 0-4.209-.155-7.627-3.572-7.781-7.781-.163-4.458-.163-8.979 0-13.437.154-4.209 3.572-7.626 7.781-7.781 2.228-.082 4.474-.123 6.72-.123 2.15 0 4.302.038 6.437.113 4.444.157 7.913 3.627 8.07 8.07z"/><path d="m116.39 438.079c2.411.088 4.839.133 7.268.133s4.856-.044 7.268-.133h.001c12.019-.441 21.78-10.202 22.22-22.22.173-4.714.177-9.503.011-14.235-.43-12.206-10.327-22.104-22.533-22.533-4.725-.166-9.514-.163-14.234.011-12.018.441-21.779 10.201-22.221 22.221-.177 4.822-.177 9.713 0 14.536.441 12.019 10.201 21.779 22.22 22.22zm-7.231-36.206c.154-4.209 3.572-7.627 7.781-7.782 2.228-.082 4.474-.123 6.72-.123 2.15 0 4.302.038 6.437.113 4.444.156 7.914 3.626 8.07 8.069.153 4.374.149 8.801-.011 13.158-.154 4.209-3.572 7.626-7.78 7.781-4.458.163-8.978.163-13.436 0-4.209-.155-7.627-3.573-7.781-7.781-.163-4.457-.163-8.978 0-13.435z"/><path d="m180.81 438.079c2.411.088 4.839.133 7.268.133s4.856-.044 7.268-.133h.001c12.019-.441 21.78-10.202 22.22-22.22.173-4.714.177-9.503.011-14.235-.43-12.206-10.327-22.104-22.533-22.533-4.725-.166-9.514-.163-14.234.011-12.02.441-21.781 10.201-22.221 22.221-.177 4.822-.177 9.713 0 14.536.439 12.018 10.199 21.779 22.22 22.22zm-7.232-36.207c.154-4.209 3.572-7.626 7.781-7.781 2.228-.082 4.474-.123 6.72-.123 2.15 0 4.302.038 6.437.113 4.444.156 7.914 3.626 8.07 8.069.153 4.374.149 8.801-.011 13.158-.154 4.209-3.572 7.626-7.78 7.781-4.459.163-8.979.163-13.436 0-4.209-.155-7.627-3.572-7.781-7.781-.163-4.457-.163-8.978 0-13.436z"/></g></g></svg>