<svg height="512pt" viewBox="-6 0 512 512" width="512pt" xmlns="http://www.w3.org/2000/svg"><g fill-rule="evenodd"><path d="m490.207031 94.683594v161.851562h-87.894531v245.460938h-304.414062v-245.460938h-87.894532v-161.851562c0-46.769532 107.496094-84.679688 240.101563-84.679688s240.101562 37.910156 240.101562 84.679688zm0 0" fill="#c0f0fb"/><path d="m341.003906 16.28125c-28.039062-4.046875-58.730468-6.277344-90.898437-6.277344s-62.859375 2.230469-90.898438 6.277344c3.226563 47.390625 42.691407 84.832031 90.898438 84.832031s87.671875-37.441406 90.898437-84.832031zm0 0" fill="#5ddef5"/><path d="m250.105469 210.398438 11.734375-11.734376c17.929687-17.929687 47.265625-17.929687 65.195312 0 17.929688 17.929688 17.929688 47.265626.003906 65.195313-25.644531 25.644531-51.289062 51.289063-76.933593 76.933594-25.644531-25.644531-51.289063-51.289063-76.933594-76.933594-17.929687-17.929687-17.929687-47.265625 0-65.195313 17.929687-17.929687 47.269531-17.929687 65.199219 0zm0 0" fill="#ff6978"/><path d="m423.207031 25.371094c-46.386719-16.359375-107.863281-25.371094-173.101562-25.371094s-126.714844 9.011719-173.105469 25.371094c-49.65625 17.511718-77 42.128906-77 69.3125v161.851562c0 5.523438 4.480469 10.003906 10.003906 10.003906h77.890625v235.457032c0 5.523437 4.480469 10.003906 10.003907 10.003906h304.414062c5.523438 0 10.003906-4.480469 10.003906-10.003906v-235.457032h77.890625c5.523438 0 10.003907-4.480468 10.003907-10.003906v-161.851562c0-27.183594-27.347657-51.800782-77.003907-69.3125zm-93.375-.523438c-7.019531 37.820313-40.382812 66.261719-79.726562 66.261719s-72.707031-28.441406-79.726563-66.261719c24.417969-3.085937 51.15625-4.839844 79.726563-4.839844 28.566406 0 55.304687 1.753907 79.726562 4.839844zm-179.28125 2.878906c8.4375 47.546876 50.238281 83.390626 99.554688 83.390626 49.316406 0 91.117187-35.84375 99.554687-83.390626 80.078125 13.1875 130.542969 41.148438 130.542969 66.957032v108.183594h-67.886719v-38.089844c0-5.523438-4.480468-10.003906-10.003906-10.003906s-10.003906 4.480468-10.003906 10.003906v283.550781h-284.40625v-283.550781c0-5.523438-4.480469-10.003906-10.003906-10.003906-5.523438 0-10.003907 4.480468-10.003907 10.003906v38.089844h-67.886719v-108.183594c0-25.808594 50.460938-53.769532 130.542969-66.957032zm-130.542969 218.804688v-23.65625h67.886719v23.65625zm87.894532 245.460938v-23.65625h284.40625v23.65625zm304.414062-245.460938v-23.65625h67.886719v23.65625zm0 0"/><path d="m214.738281 319.570312c3.90625 3.90625 10.238281 3.90625 14.144531 0 3.910157-3.90625 3.910157-10.238281 0-14.148437l-48.636718-48.636719c-14.074219-14.074218-14.074219-36.976562 0-51.050781 6.78125-6.78125 15.847656-10.515625 25.527344-10.515625 9.675781 0 18.742187 3.734375 25.523437 10.515625l11.734375 11.738281c3.910156 3.902344 10.242188 3.902344 14.148438 0l11.734374-11.738281c14.074219-14.074219 36.976563-14.074219 51.050782 0 14.074218 14.074219 14.074218 36.976563 0 51.050781l-48.640625 48.636719c-3.90625 3.910156-3.90625 10.242187 0 14.148437 1.957031 1.953126 4.515625 2.933594 7.074219 2.933594 2.5625 0 5.121093-.980468 7.074218-2.933594l48.640625-48.636718c21.875-21.875 21.871094-57.46875 0-79.347656-10.5625-10.558594-24.652343-16.375-39.671875-16.375-15.023437 0-29.113281 5.816406-39.675781 16.375l-4.660156 4.664062-4.660157-4.664062c-21.875-21.871094-57.46875-21.875-79.347656 0-10.558594 10.5625-16.375 24.652343-16.375 39.675781 0 15.019531 5.816406 29.109375 16.375 39.671875zm0 0"/><path d="m250.105469 330.789062c-5.511719 0-10.003907 4.492188-10.003907 10.003907s4.492188 10.003906 10.003907 10.003906c5.507812 0 10.003906-4.492187 10.003906-10.003906s-4.496094-10.003907-10.003906-10.003907zm0 0"/></g></svg>